<?xml version="1.0" standalone="no"?>
<!DOCTYPE svg PUBLIC "-//W3C//DTD SVG 20010904//EN" "http://www.w3.org/TR/2001/REC-SVG-20010904/DTD/svg10.dtd">
<!-- Created using Krita: http://krita.org -->
<svg xmlns="http://www.w3.org/2000/svg" 
    xmlns:xlink="http://www.w3.org/1999/xlink"
    xmlns:krita="http://krita.org/namespaces/svg/krita"
    xmlns:sodipodi="http://sodipodi.sourceforge.net/DTD/sodipodi-0.dtd"
    width="72pt"
    height="44.8525pt"
    viewBox="0 0 72 44.8525">
<defs/>
<g id="lines" transform="matrix(1.18032786885246 0 0 1.18032786885246 -908.852459016393 -695.213114754098)" fill="none">
  <path id="shape0" transform="translate(826.8, 589.38)" fill="none" stroke="#000000" stroke-width="5" stroke-linecap="round" stroke-linejoin="round" d="M0.25 0C1.14 0.98 1.72 1.68 1.96 2.12C3.33 4.55 3.72 11.47 2.85 15.76C2.48 17.48 1.75 18.69 0.01 20.77C0.01 20.77 0 20.78 0 20.77"/>
  <path id="shape1" transform="translate(770.737132310311, 589.59)" fill="none" stroke="#000000" stroke-width="5" stroke-linecap="round" stroke-linejoin="round" d="M2.73287 0C1.15287 2.15 -0.0671323 6.8 0.00286769 11.32C0.102868 14.81 1.83287 19.35 2.65287 20.99"/>
  <path id="shape2" transform="translate(773.166817002728, 589.14)" fill="none" stroke="#000000" stroke-width="5" stroke-linecap="round" stroke-linejoin="round" d="M53.6332 0.65C52.6932 0.64 52.0132 0.62 51.5932 0.61C40.6332 -0.01 26.8532 0.89 21.2432 0.79C13.2832 0.51 2.70318 0.12 0.083183 0.01C0.063183 0.01 -0.016817 0 0.003183 0"/>
  <path id="shape3" transform="translate(773.83, 609.85)" fill="none" stroke="#000000" stroke-width="5" stroke-linecap="round" stroke-linejoin="round" d="M53.46 0.12C53.08 0.13 51.47 0.13 50.24 0.12C33.39 0.08 8.27 0.02 0 0"/>
  <path id="shape4" transform="translate(821.46, 610.91)" fill="none" stroke="#000000" stroke-width="5" stroke-linecap="round" stroke-linejoin="round" d="M0 0C0.08 0 0.95 0.41 6.58 2.96C7.37 3.32 8.16 3.67 8.94 4.03C9.02 5.95 9.18 9.79 9.26 11.71C9.26 11.71 9.26 11.71 9.26 11.71"/>
  <path id="shape5" transform="translate(810.36, 611.38)" fill="none" stroke="#000000" stroke-width="5" stroke-linecap="round" stroke-linejoin="round" d="M20 11.89C18.59 10.97 17.7 10.41 15.78 9.29C9.07 5.34 0.1 0.06 0.1 0.06C0.14 0.08 0.04 0.02 0 0"/>
  <path id="shape6" transform="translate(770.06, 610.02)" fill="none" stroke="#000000" stroke-width="5" stroke-linecap="round" stroke-linejoin="round" d="M8.75 0C8.75 0 8.75 0.01 8.75 0.01C8.52 0.55 6.44 1.41 4.81 2.44C3.37 3.34 0.97 4.85 0 5.46C0.57 5.08 0.91 4.85 1.03 4.78C1.15 4.71 1.21 4.71 1.21 4.78"/>
  <path id="shape7" transform="translate(770.02, 614.715595082637)" fill="none" stroke="#000000" stroke-width="5" stroke-linecap="round" stroke-linejoin="round" d="M0.36 1.0244C0.35 0.704405 0.35 -0.255595 0.36 0.0644049C0.37 2.5644 0.32 4.4244 0.17 6.1944C0.11 6.8644 0.06 7.5444 0 8.2144"/>
  <path id="shape8" transform="translate(770.26, 610.935857864376)" fill="none" stroke="#000000" stroke-width="5" stroke-linecap="round" stroke-linejoin="round" d="M1.3 10.3241C1.3 10.3241 0 12.8841 0 12.8841C6.32 8.29414 15.2 1.86414 17.75 0.0141421C17.76 0.00414214 17.79 -0.00585786 17.78 0.00414214"/>
  <path id="shape9" transform="translate(771.67, 602.79)" fill="none" stroke="#6c5a46" stroke-width="5" stroke-linecap="round" stroke-linejoin="round" d="M58.15 0C58.15 0 58.27 0.01 58.27 0.01C58.76 0.07 58.05 1.95 56.82 2.43C52.19 4.14 44.57 4.58 40.3 4.6C32.79 4.59 21.88 4.08 10.7 4.06C6.78 4.03 4.51 3.95 2.81 3.19C1.6 2.64 0.07 0.73 0 0.56"/>
  <path id="shape10" transform="translate(818.883041730861, 612.74)" fill="none" stroke="#644d3f" stroke-width="5" stroke-linecap="round" stroke-linejoin="round" d="M6.63696 0C5.61696 0.07 0.576958 0.17 0.226958 0.38C-0.353042 0.83 0.0269583 1.6 3.16696 3.29C8.79696 6.3 10.447 7.81 11.177 8.57C11.187 8.59 11.227 8.64 11.217 8.63"/>
  <path id="shape11" transform="translate(772.359439554001, 610.28)" fill="none" stroke="#644d3f" stroke-width="5" stroke-linecap="round" stroke-linejoin="round" d="M4.64056 0C4.63056 0.03 4.66056 0.06 4.71056 0.09C5.37056 0.53 8.63056 1.02 8.80056 1.12C9.05056 1.3 8.66056 2.18 6.67056 3.89C2.06056 7.79 -0.0394396 10.69 0.000560446 10.58"/>
 </g><rect id="shape12" transform="translate(2.36065573770492, 2.36065573770492)" fill="#6c5a46" fill-rule="evenodd" width="67.2786885245902" height="15.344262295082"/><rect id="shape13" transform="translate(51.9344262295082, 27.1475409836066)" fill="#644d3f" fill-rule="evenodd" width="7.08196721311475" height="2.36065573770492"/><rect id="shape14" transform="translate(54.2950819672131, 28.327868852459)" fill="#644d3f" fill-rule="evenodd" width="1.18032786885246" height="2.36065573770492"/><rect id="shape15" transform="translate(64.9180327868852, 30.6885245901639)" fill="#644d3f" fill-rule="evenodd" width="4.72131147540983" height="4.72131147540983"/><rect id="shape16" transform="translate(66.0983606557377, 29.5081967213115)" fill="#644d3f" fill-rule="evenodd" width="2.36065573770492" height="2.36065573770492"/><rect id="shape17" transform="translate(4.72131147540984, 24.7868852459016)" fill="#644d3f" fill-rule="evenodd" width="3.54098360655738" height="8.26229508196721"/><rect id="shape18" transform="translate(2.36065573770492, 29.5081967213115)" fill="#644d3f" fill-rule="evenodd" width="4.72131147540984" height="4.72131147540984"/><rect id="shape19" transform="translate(14.1639344262295, 25.9672131147541)" fill="#644d3f" fill-rule="evenodd" width="2.36065573770492" height="2.36065573770492"/><rect id="shape20" transform="translate(-1.18032786885246, 38.9508196721311)" fill="#644d3f" fill-rule="evenodd" width="3.54098360655738" height="1.18032786885246"/><rect id="shape21" transform="translate(-1.18032786885246, 38.9508196721311)" fill="#644d3f" fill-rule="evenodd" width="2.36065573770492" height="2.36065573770492"/><rect id="shape22" transform="translate(0, 40.1311475409836)" fill="#644d3f" fill-rule="evenodd" width="2.36065573770492" height="1.18032786885246"/><path id="shape23" transform="translate(10.327868852459, 7.81967213114754)" fill="none" stroke="#4b3d2f" stroke-width="1.36918032786885" stroke-linecap="square" stroke-linejoin="miter" stroke-miterlimit="2" d="M0 0.0737705L6.56557 0"/><path id="shape24" transform="translate(13.5737704918033, 10.2540983606557)" fill="none" stroke="#4b3d2f" stroke-width="1.36918032786885" stroke-linecap="square" stroke-linejoin="miter" stroke-miterlimit="2" d="M0 0L12.3197 0"/><rect id="shape25" transform="translate(7.08196721311475, 16.5245901639344)" fill="#6c5a46" fill-rule="evenodd" width="56.655737704918" height="5.9016393442623"/><path id="shape26" transform="translate(45.3688524590164, 18.2213114754098)" fill="none" stroke="#4e4131" stroke-width="1.36918032786885" stroke-linecap="square" stroke-linejoin="miter" stroke-miterlimit="2" d="M0 0L12.7623 0"/><path id="shape27" transform="translate(49.3524590163934, 14.827868852459)" fill="none" stroke="#4e4131" stroke-width="1.36918032786885" stroke-linecap="square" stroke-linejoin="miter" stroke-miterlimit="2" d="M0 0.0737705L16.2295 0"/><path id="shape28" transform="translate(1.84426229508196, 3.02459016393443)" fill="none" stroke="#6c5a46" stroke-width="1.36918032786885" stroke-linecap="square" stroke-linejoin="miter" stroke-miterlimit="2" d="M0 0L0.0737705 12.2459"/><path id="shape29" transform="translate(70.0819672131147, 3.17213114754098)" fill="none" stroke="#6c5a46" stroke-width="1.36918032786885" stroke-linecap="square" stroke-linejoin="miter" stroke-miterlimit="2" d="M0 0L0.0737705 12.3197"/>
</svg>
